<?xml version="1.0" encoding="utf-8"?><svg xmlns="http://www.w3.org/2000/svg" xmlns:xlink="http://www.w3.org/1999/xlink"><symbol viewBox="0 0 20 20" id="angle-thin-up"><path d="M2.582 13.891c-.272.268-.709.268-.979 0s-.271-.701 0-.969l7.908-7.83a.697.697 0 0 1 .979 0l7.908 7.83c.27.268.27.701 0 .969s-.709.268-.978 0L10 6.75l-7.418 7.141z"/></symbol><symbol viewBox="0 0 24 24" id="bookmark"><path d="M13.744 8s1.522-8-3.335-8H2v24h20V11c0-3.42-5.247-3.745-8.256-3zm.855 10L12 16.609 9.401 18l.518-2.902-2.125-2.041 2.921-.404L12 10l1.285 2.652 2.921.404-2.125 2.041.518 2.903zM14.568.074C16.77 1.248 20.506 4.959 22 6.956c-1.286-.899-4.044-1.657-6.091-1.179.222-1.468-.185-4.535-1.341-5.703z"/></symbol><symbol viewBox="0 0 24 24" id="check-mark"><path d="M20.285 2L9 13.567 3.714 8.556 0 12.272 9 21 24 5.715z"/></symbol><symbol viewBox="0 0 24 24" id="dribbble"><path d="M12 0C5.372 0 0 5.373 0 12s5.372 12 12 12 12-5.373 12-12S18.628 0 12 0zm9.885 11.441c-2.575-.422-4.943-.445-7.103-.073a42.153 42.153 0 0 0-.767-1.68c2.31-1 4.165-2.358 5.548-4.082a9.863 9.863 0 0 1 2.322 5.835zm-3.842-7.282c-1.205 1.554-2.868 2.783-4.986 3.68a46.287 46.287 0 0 0-3.488-5.438A9.894 9.894 0 0 1 12 2.087c2.275 0 4.368.779 6.043 2.072zM7.527 3.166a44.59 44.59 0 0 1 3.537 5.381c-2.43.715-5.331 1.082-8.684 1.105a9.931 9.931 0 0 1 5.147-6.486zM2.087 12l.013-.256c3.849-.005 7.169-.448 9.95-1.322.233.475.456.952.67 1.432-3.38 1.057-6.165 3.222-8.337 6.48A9.865 9.865 0 0 1 2.087 12zm3.829 7.81c1.969-3.088 4.482-5.098 7.598-6.027a39.137 39.137 0 0 1 2.043 7.46c-3.349 1.291-6.953.666-9.641-1.433zm11.586.43a41.098 41.098 0 0 0-1.92-6.897c1.876-.265 3.94-.196 6.199.196a9.923 9.923 0 0 1-4.279 6.701z"/></symbol><symbol viewBox="0 0 32 32" id="earth"><title>earth</title><path d="M16 0C7.163 0 0 7.163 0 16s7.163 16 16 16 16-7.163 16-16S24.837 0 16 0zm0 30c-1.967 0-3.84-.407-5.538-1.139l7.286-8.197a.998.998 0 0 0 .253-.664v-3a1 1 0 0 0-1-1c-3.531 0-7.256-3.671-7.293-3.707A1 1 0 0 0 9.001 12h-4a1 1 0 0 0-1 1v6c0 .379.214.725.553.894l3.447 1.724v5.871c-3.627-2.53-6-6.732-6-11.489 0-2.147.484-4.181 1.348-6h3.652c.265 0 .52-.105.707-.293l4-4A1 1 0 0 0 12.001 5V2.581a14.013 14.013 0 0 1 4-.581c2.2 0 4.281.508 6.134 1.412A5.961 5.961 0 0 0 20.002 8c0 1.603.624 3.109 1.757 4.243a5.985 5.985 0 0 0 4.536 1.751c.432 1.619 1.211 5.833-.263 11.635a.936.936 0 0 0-.026.163A13.956 13.956 0 0 1 16.002 30z"/></symbol><symbol viewBox="0 0 32 32" id="envelop"><title>envelop</title><path d="M29 4H3C1.35 4 0 5.35 0 7v20c0 1.65 1.35 3 3 3h26c1.65 0 3-1.35 3-3V7c0-1.65-1.35-3-3-3zM12.461 17.199L4 23.789V8.113l8.461 9.086zM5.512 8h20.976L16 15.875 5.512 8zm7.278 9.553L16 21l3.21-3.447L25.79 26H6.211l6.58-8.447zm6.749-.354L28 8.113v15.676l-8.461-6.59z"/></symbol><symbol viewBox="0 0 16 16" id="facebook"><path d="M14.5 0h-13C.675 0 0 .675 0 1.5v13c0 .825.675 1.5 1.5 1.5H8V9H6V7h2V6c0-1.653 1.347-3 3-3h2v2h-2c-.55 0-1 .45-1 1v1h3l-.5 2H10v7h4.5c.825 0 1.5-.675 1.5-1.5v-13c0-.825-.675-1.5-1.5-1.5z"/></symbol><symbol viewBox="0 0 24 24" id="github"><path d="M12 0C5.374 0 0 5.373 0 12c0 5.302 3.438 9.8 8.207 11.387.599.111.793-.261.793-.577v-2.234c-3.338.726-4.033-1.416-4.033-1.416-.546-1.387-1.333-1.756-1.333-1.756-1.089-.745.083-.729.083-.729 1.205.084 1.839 1.237 1.839 1.237 1.07 1.834 2.807 1.304 3.492.997.107-.775.418-1.305.762-1.604-2.665-.305-5.467-1.334-5.467-5.931 0-1.311.469-2.381 1.236-3.221-.124-.303-.535-1.524.117-3.176 0 0 1.008-.322 3.301 1.23A11.509 11.509 0 0 1 12 5.803c1.02.005 2.047.138 3.006.404 2.291-1.552 3.297-1.23 3.297-1.23.653 1.653.242 2.874.118 3.176.77.84 1.235 1.911 1.235 3.221 0 4.609-2.807 5.624-5.479 5.921.43.372.823 1.102.823 2.222v3.293c0 .319.192.694.801.576C20.566 21.797 24 17.3 24 12c0-6.627-5.373-12-12-12z"/></symbol><symbol viewBox="0 0 16 16" id="linkedin"><path d="M6 6h2.767v1.418h.04C9.192 6.727 10.134 6 11.539 6 14.46 6 15 7.818 15 10.183V15h-2.885v-4.27c0-1.018-.021-2.329-1.5-2.329-1.502 0-1.732 1.109-1.732 2.255V15H6V6zM1 6h3v9H1V6zm3-2.5a1.5 1.5 0 1 1-3.001-.001A1.5 1.5 0 0 1 4 3.5z"/></symbol><symbol viewBox="0 0 32 32" id="location"><title>location</title><path d="M16 0C10.477 0 6 4.477 6 10c0 10 10 22 10 22s10-12 10-22c0-5.523-4.477-10-10-10zm0 16.125a6.125 6.125 0 1 1 0-12.25 6.125 6.125 0 0 1 0 12.25zM12.125 10a3.875 3.875 0 1 1 7.75 0 3.875 3.875 0 0 1-7.75 0z"/></symbol><symbol viewBox="0 0 32 32" id="phone"><title>phone</title><path d="M22 20c-2 2-2 4-4 4s-4-2-6-4-4-4-4-6 2-2 4-4-4-8-6-8-6 6-6 6c0 4 4.109 12.109 8 16s12 8 16 8c0 0 6-4 6-6s-6-8-8-6z"/></symbol><symbol viewBox="0 0 24 24" id="shield"><path d="M12 4.942c1.827 1.105 3.474 1.6 5 1.833v7.76c0 1.606-.415 1.935-5 4.76V4.942zM21 3v11.535c0 4.603-3.203 5.804-9 9.465-5.797-3.661-9-4.862-9-9.465V3c3.516 0 5.629-.134 9-3 3.371 2.866 5.484 3 9 3zm-2 1.96c-2.446-.124-4.5-.611-7-2.416C9.5 4.349 7.446 4.836 5 4.96v9.575c0 3.042 1.69 3.83 7 7.107 5.313-3.281 7-4.065 7-7.107V4.96z"/></symbol><symbol viewBox="0 0 24 24" id="twitter"><path d="M24 4.557a9.83 9.83 0 0 1-2.828.775 4.932 4.932 0 0 0 2.165-2.724 9.864 9.864 0 0 1-3.127 1.195 4.916 4.916 0 0 0-3.594-1.555c-3.179 0-5.515 2.966-4.797 6.045A13.978 13.978 0 0 1 1.671 3.149a4.93 4.93 0 0 0 1.523 6.574 4.903 4.903 0 0 1-2.229-.616c-.054 2.281 1.581 4.415 3.949 4.89a4.935 4.935 0 0 1-2.224.084 4.928 4.928 0 0 0 4.6 3.419A9.9 9.9 0 0 1 0 19.54a13.94 13.94 0 0 0 7.548 2.212c9.142 0 14.307-7.721 13.995-14.646A10.025 10.025 0 0 0 24 4.557z"/></symbol><symbol viewBox="0 0 24 24" id="user"><path d="M17.997 18H6.002L6 17.377c0-1.259.1-1.986 1.588-2.33 1.684-.389 3.344-.736 2.545-2.209C7.767 8.475 9.459 6 11.999 6c2.491 0 4.226 2.383 1.866 6.839-.775 1.464.826 1.812 2.545 2.209 1.49.344 1.589 1.072 1.589 2.333l-.002.619zm4.811-2.214c-1.29-.298-2.49-.559-1.909-1.657 1.769-3.342.469-5.129-1.4-5.129-1.265 0-2.248.817-2.248 2.324 0 3.903 2.268 1.77 2.246 6.676h4.501l.002-.463c0-.946-.074-1.493-1.192-1.751zM.002 18h4.501c-.021-4.906 2.246-2.772 2.246-6.676C6.749 9.817 5.766 9 4.501 9c-1.869 0-3.169 1.787-1.399 5.129.581 1.099-.619 1.359-1.909 1.657C.074 16.044 0 16.591 0 17.537L.002 18z"/></symbol></svg>